<?xml version="1.0" encoding="UTF-8"?>
<svg version="1.1" xmlns="http://www.w3.org/2000/svg" width="206" height="159">
<path d="M0 0 C67.98 0 135.96 0 206 0 C206 52.47 206 104.94 206 159 C138.02 159 70.04 159 0 159 C0 106.53 0 54.06 0 0 Z " fill="#FCFCFC" transform="translate(0,0)"/>
<path d="M0 0 C22.20267909 -0.4531159 22.20267909 -0.4531159 32 2 C32.495 2.99 32.495 2.99 33 4 C33.804375 4.28875 34.60875 4.5775 35.4375 4.875 C38.50835199 6.22317892 38.78111735 6.97175377 40 10 C41.09618946 14.53750557 40.62724466 17.87333779 38.3515625 21.9609375 C32.5219983 30.21768085 32.5219983 30.21768085 28 32 C28 32.66 28 33.32 28 34 C22.36254352 39.45208558 12.35424718 49 4 49 C4 49.66 4 50.32 4 51 C0.17679443 52.42258812 -2.91281305 53.24042276 -7 53 C-7 53.66 -7 54.32 -7 55 C-10.59275596 57.66559313 -14.46514828 58.92079732 -18.6796875 60.2421875 C-20.820769 60.94146327 -22.86003979 61.75869068 -24.9375 62.625 C-29.50656447 64.38801276 -34.14391854 64.71142139 -39 65 C-39 65.66 -39 66.32 -39 67 C-50.80401934 69.47277876 -61.90301429 71.20350069 -74 71 C-74 71.66 -74 72.32 -74 73 C-80.6 73 -87.2 73 -94 73 C-94 72.01 -94 71.02 -94 70 C-93.34 70 -92.68 70 -92 70 C-92 69.01 -92 68.02 -92 67 C-90.625 65.3125 -90.625 65.3125 -89 64 C-88.34 64 -87.68 64 -87 64 C-86.731875 63.278125 -86.46375 62.55625 -86.1875 61.8125 C-84.14241353 56.96887415 -81.6885365 53.6885365 -78 50 C-76.67436494 48.15529097 -75.39927064 46.28679243 -74.1484375 44.390625 C-73.76945312 43.93171875 -73.39046875 43.4728125 -73 43 C-72.34 43 -71.68 43 -71 43 C-71 42.01 -71 41.02 -71 40 C-69.625 38.3125 -69.625 38.3125 -68 37 C-67.34 37 -66.68 37 -66 37 C-65.773125 36.319375 -65.54625 35.63875 -65.3125 34.9375 C-63.68773854 31.3011291 -61.67196743 27.97170737 -59 25 C-58.34 25 -57.68 25 -57 25 C-57.33 26.98 -57.66 28.96 -58 31 C-58.66 31 -59.32 31 -60 31 C-60 32.65 -60 34.3 -60 36 C-60.66 36 -61.32 36 -62 36 C-62.268125 36.804375 -62.53625 37.60875 -62.8125 38.4375 C-63.204375 39.283125 -63.59625 40.12875 -64 41 C-65.485 41.495 -65.485 41.495 -67 42 C-67.33 44.31 -67.66 46.62 -68 49 C-68.66 49 -69.32 49 -70 49 C-70.66 51.97 -71.32 54.94 -72 58 C-70.71029297 57.89171875 -70.71029297 57.89171875 -69.39453125 57.78125 C-61.24206133 57.14114331 -53.17605706 56.87776659 -45 57 C-45 56.34 -45 55.68 -45 55 C-43.68 55 -42.36 55 -41 55 C-41 54.34 -41 53.68 -41 53 C-35.06 52.505 -35.06 52.505 -29 52 C-29 51.34 -29 50.68 -29 50 C-27.30403646 49.66080729 -25.60807292 49.32161458 -23.91210938 48.98242188 C-23.21923828 48.84384766 -22.52636719 48.70527344 -21.8125 48.5625 C-17.90625 47.78125 -17.90625 47.78125 -14 47 C-12.52080078 46.70416016 -12.52080078 46.70416016 -11.01171875 46.40234375 C-10.01591797 46.20318359 -10.01591797 46.20318359 -9 46 C-9 45.34 -9 44.68 -9 44 C-5.535 43.505 -5.535 43.505 -2 43 C-2 42.34 -2 41.68 -2 41 C-0.02 40.67 1.96 40.34 4 40 C4 39.34 4 38.68 4 38 C5.98 37.67 7.96 37.34 10 37 C10 36.34 10 35.68 10 35 C11.98 34.67 13.96 34.34 16 34 C16 33.34 16 32.68 16 32 C16.7425 31.71125 17.485 31.4225 18.25 31.125 C21.71509946 29.7398151 21.71509946 29.7398151 25 28 C25.495 26.515 25.495 26.515 26 25 C26.969375 24.195625 27.93875 23.39125 28.9375 22.5625 C31.61294693 20.32386073 32.82408011 19.1749837 34 16 C34.66 16 35.32 16 36 16 C35.23786208 12.03688282 34.6164978 9.5998357 31.6875 6.75 C22.34345728 1.4911547 10.45129609 1.41920828 0 1 C0 0.67 0 0.34 0 0 Z " fill="#FE9945" transform="translate(147,24)"/>
<path d="M0 0 C-0.51965744 4.09319216 -1.60106806 6.0963352 -4.4375 9.0625 C-6.83723484 11.59249184 -8.58265048 13.80206062 -10 17 C-10.66 17 -11.32 17 -12 17 C-12.268125 17.804375 -12.53625 18.60875 -12.8125 19.4375 C-13.204375 20.283125 -13.59625 21.12875 -14 22 C-15.485 22.495 -15.485 22.495 -17 23 C-18.02651373 24.71519747 -18.02651373 24.71519747 -19 27 C-22.42727273 33.61818182 -22.42727273 33.61818182 -26 36 C-26.33 36.99 -26.66 37.98 -27 39 C-27.66 39 -28.32 39 -29 39 C-28.47196511 33.67014779 -26.59789733 29.93494567 -24 25.375 C-20.90838124 19.93087456 -20.90838124 19.93087456 -19 14 C-33.23093112 15.06661811 -47.38397822 16.46132607 -61 21 C-63.33299825 21.03954234 -65.66708189 21.04401732 -68 21 C-68 21.66 -68 22.32 -68 23 C-70.97 23.33 -73.94 23.66 -77 24 C-77 24.66 -77 25.32 -77 26 C-78.32 26 -79.64 26 -81 26 C-81 26.66 -81 27.32 -81 28 C-82.96875 28.65625 -82.96875 28.65625 -84.9375 29.3125 C-85.76121094 29.58964844 -86.58492187 29.86679687 -87.43359375 30.15234375 C-89.04460459 30.68444322 -90.66124902 31.20007022 -92.28515625 31.69140625 C-102.42677168 34.82153447 -110.66965121 40.52370102 -119 47 C-119.65871094 47.49371094 -120.31742188 47.98742188 -120.99609375 48.49609375 C-124.45971852 51.42813102 -125.42002316 53.89820684 -125.9375 58.25 C-126.17209233 61.76532082 -126.17209233 61.76532082 -125 65 C-124.01 65.33 -123.02 65.66 -122 66 C-122 66.66 -122 67.32 -122 68 C-118.7 68.33 -115.4 68.66 -112 69 C-112 69.66 -112 70.32 -112 71 C-106.72 71 -101.44 71 -96 71 C-96 71.33 -96 71.66 -96 72 C-120.69415309 73.13822149 -120.69415309 73.13822149 -130 67 C-133.03665193 62.87041516 -133.52929565 60.1165246 -133 55 C-131.21990954 49.65972862 -128.83042047 46.01727025 -125 42 C-124.01386719 41.52240234 -124.01386719 41.52240234 -123.0078125 41.03515625 C-120.75631001 39.87436216 -119.82082682 38.76110243 -118.3125 36.75 C-112.66442307 29.9610397 -105.49025339 26.61094044 -97.40625 23.43359375 C-92.58859259 21.40597876 -87.97175474 19.01534666 -83.34350586 16.59033203 C-78.3153241 14 -78.3153241 14 -75 14 C-75 13.34 -75 12.68 -75 12 C-70.545 11.505 -70.545 11.505 -66 11 C-66 10.34 -66 9.68 -66 9 C-62.7 8.67 -59.4 8.34 -56 8 C-56 7.34 -56 6.68 -56 6 C-37.83415618 0.83924891 -18.81211221 -0.28551266 0 0 Z " fill="#0D337E" transform="translate(148,11)"/>
<path d="M0 0 C2.43816585 -0.0809723 4.87364384 -0.14046972 7.3125 -0.1875 C8.34793945 -0.22520508 8.34793945 -0.22520508 9.40429688 -0.26367188 C14.47826186 -0.3372076 14.47826186 -0.3372076 16.85546875 1.19921875 C20.41204719 6.79506401 20.97410284 12.51247512 20 19 C17.47429367 22.41311667 16.00086696 23.66637768 12 25 C9.93854893 25.068991 7.87498599 25.08467727 5.8125 25.0625 C4.18248047 25.04896484 4.18248047 25.04896484 2.51953125 25.03515625 C1.68808594 25.02355469 0.85664063 25.01195312 0 25 C0 16.66666667 0 8.33333333 0 0 Z " fill="#F3F3F5" transform="translate(9,116)"/>
<path d="M0 0 C1.75 1.5 1.75 1.5 3 3 C3.556875 2.505 4.11375 2.01 4.6875 1.5 C7.38162983 -0.24754367 8.85375007 -0.26218749 12 0 C12 1.32 12 2.64 12 4 C11.01 3.67 10.02 3.34 9 3 C8.67 4.32 8.34 5.64 8 7 C9.32 7.33 10.64 7.66 12 8 C12.80967438 10.91482778 13.21845993 12.46113217 12.0625 15.3125 C11.5365625 16.1478125 11.5365625 16.1478125 11 17 C8.69 17 6.38 17 4 17 C3.67 16.34 3.34 15.68 3 15 C-1.455 15.495 -1.455 15.495 -6 16 C-6 15.34 -6 14.68 -6 14 C-6.66 14 -7.32 14 -8 14 C-8.62283737 4.93425606 -8.62283737 4.93425606 -6.25 1.375 C-4 0 -4 0 0 0 Z " fill="#EDEDF1" transform="translate(183,124)"/>
<path d="M0 0 C2.20914 3.31371 2.22481553 4.3446021 2.125 8.1875 C2.10695312 9.08855469 2.08890625 9.98960937 2.0703125 10.91796875 C2.04710937 11.60503906 2.02390625 12.29210937 2 13 C2.66 13 3.32 13 4 13 C4.33 14.32 4.66 15.64 5 17 C0.87513162 17.08676908 -3.24950384 17.14031295 -7.375 17.1875 C-8.550625 17.21263672 -9.72625 17.23777344 -10.9375 17.26367188 C-12.05898437 17.27333984 -13.18046875 17.28300781 -14.3359375 17.29296875 C-15.37282715 17.3086792 -16.4097168 17.32438965 -17.47802734 17.34057617 C-18.31027832 17.22818604 -19.1425293 17.1157959 -20 17 C-22.13586678 13.79619983 -22.23132175 12.98060033 -22.125 9.3125 C-22.10695313 8.50425781 -22.08890625 7.69601563 -22.0703125 6.86328125 C-22.04710938 6.24839844 -22.02390625 5.63351563 -22 5 C-19.69 5 -17.38 5 -15 5 C-15 4.01 -15 3.02 -15 2 C-14.01 2.33 -13.02 2.66 -12 3 C-12 3.99 -12 4.98 -12 6 C-14.64 6 -17.28 6 -20 6 C-19.67 7.65 -19.34 9.3 -19 11 C-15.02245872 11.73334429 -15.02245872 11.73334429 -11 12 C-11 12.99 -11 13.98 -11 15 C-10.34 15 -9.68 15 -9 15 C-9 10.38 -9 5.76 -9 1 C-3 0 -3 0 0 0 Z " fill="#E0E0E6" transform="translate(136,124)"/>
<path d="M0 0 C2.375 0.75 2.375 0.75 3.375 1.75 C3.61027773 4.09987262 3.78886417 6.45556039 3.9375 8.8125 C4.06318359 10.74802734 4.06318359 10.74802734 4.19140625 12.72265625 C4.25199219 13.72167969 4.31257813 14.72070312 4.375 15.75 C3.055 15.42 1.735 15.09 0.375 14.75 C0.045 13.1 -0.285 11.45 -0.625 9.75 C-1.285 11.73 -1.945 13.71 -2.625 15.75 C-4.10331221 15.94412181 -5.58269316 16.13012131 -7.0625 16.3125 C-7.88621094 16.41691406 -8.70992187 16.52132812 -9.55859375 16.62890625 C-10.24050781 16.66886719 -10.92242187 16.70882812 -11.625 16.75 C-13.56472995 14.81027005 -13.06723852 11.33999123 -13.25 8.75 C-13.39308594 6.831875 -13.39308594 6.831875 -13.5390625 4.875 C-13.56742188 3.84375 -13.59578125 2.8125 -13.625 1.75 C-12.625 0.75 -12.625 0.75 -9.5625 0.6875 C-8.1084375 0.7184375 -8.1084375 0.7184375 -6.625 0.75 C-6.295 1.41 -5.965 2.07 -5.625 2.75 C-5.233125 2.234375 -4.84125 1.71875 -4.4375 1.1875 C-2.625 -0.25 -2.625 -0.25 0 0 Z " fill="#F3F3F5" transform="translate(72.625,124.25)"/>
<path d="M0 0 C0.33 0.99 0.66 1.98 1 3 C6.61 3 12.22 3 18 3 C18 7.95 18 12.9 18 18 C15.03 18.33 12.06 18.66 9 19 C9 18.34 9 17.68 9 17 C8.34 17 7.68 17 7 17 C7 13.04 7 9.08 7 5 C5.02 5 3.04 5 1 5 C1 8.96 1 12.92 1 17 C1.66 17.33 2.32 17.66 3 18 C1.68 17.67 0.36 17.34 -1 17 C-1.33 12.05 -1.66 7.1 -2 2 C-1.34 2 -0.68 2 0 2 C0 1.34 0 0.68 0 0 Z " fill="#BFBFCC" transform="translate(144,122)"/>
<path d="M0 0 C2.43816585 -0.0809723 4.87364384 -0.14046972 7.3125 -0.1875 C8.34793945 -0.22520508 8.34793945 -0.22520508 9.40429688 -0.26367188 C14.47826186 -0.3372076 14.47826186 -0.3372076 16.85546875 1.19921875 C20.41204719 6.79506401 20.97410284 12.51247512 20 19 C17.47429367 22.41311667 16.00086696 23.66637768 12 25 C9.93854893 25.068991 7.87498599 25.08467727 5.8125 25.0625 C4.18248047 25.04896484 4.18248047 25.04896484 2.51953125 25.03515625 C1.68808594 25.02355469 0.85664063 25.01195312 0 25 C0 16.66666667 0 8.33333333 0 0 Z M4 2 C4 8.27 4 14.54 4 21 C10.2871213 22.4135909 10.2871213 22.4135909 13.375 21.25 C15.309697 20.00281178 15.309697 20.00281178 16 17 C16.6810336 9.89694952 16.6810336 9.89694952 14.5 3.3125 C11.29006767 1.38022147 11.29006767 1.38022147 4 2 Z " fill="#4A4A6F" transform="translate(9,116)"/>
<path d="M0 0 C0 4.95 0 9.9 0 15 C-0.66 15 -1.32 15 -2 15 C-2 11.04 -2 7.08 -2 3 C-3.65 3.66 -5.3 4.32 -7 5 C-6.896875 5.763125 -6.79375 6.52625 -6.6875 7.3125 C-6.8421875 8.6428125 -6.8421875 8.6428125 -7 10 C-9.4375 11.6875 -9.4375 11.6875 -12 13 C-12.33 13.66 -12.66 14.32 -13 15 C-11.576875 14.9690625 -11.576875 14.9690625 -10.125 14.9375 C-7 15 -7 15 -5 16 C-5 17.65 -5 19.3 -5 21 C-5.66 20.34 -6.32 19.68 -7 19 C-9.65537372 18.43479997 -12.29144713 18.26211802 -15 18 C-15 17.34 -15 16.68 -15 16 C-15.66 16 -16.32 16 -17 16 C-17 14.68 -17 13.36 -17 12 C-16.34 12 -15.68 12 -15 12 C-15.66 11.01 -16.32 10.02 -17 9 C-17.125 5.8125 -17.125 5.8125 -17 3 C-16.34 3 -15.68 3 -15 3 C-15 2.34 -15 1.68 -15 1 C-10.73840618 -1.13079691 -4.59236298 -0.04502317 0 0 Z " fill="#A1A1B4" transform="translate(55,124)"/>
<path d="M0 0 C0 3.96 0 7.92 0 12 C1.32 12 2.64 12 4 12 C4 12.66 4 13.32 4 14 C2.02 14 0.04 14 -2 14 C-1.87625 15.11375 -1.87625 15.11375 -1.75 16.25 C-2 19 -2 19 -3.5 21.3125 C-7.19486455 23.80653357 -9.58891885 23.42687882 -14 23 C-16 21 -16 21 -16.125 18.375 C-16.08375 17.59125 -16.0425 16.8075 -16 16 C-15.34 16 -14.68 16 -14 16 C-13.67 15.01 -13.34 14.02 -13 13 C-13 13.66 -13 14.32 -13 15 C-11.700625 14.979375 -10.40125 14.95875 -9.0625 14.9375 C-7.70834367 14.91600546 -6.35243917 14.92851801 -5 15 C-4.67 15.33 -4.34 15.66 -4 16 C-3.67 15.01 -3.34 14.02 -3 13 C-5.64 12.67 -8.28 12.34 -11 12 C-10.67 11.01 -10.34 10.02 -10 9 C-9.34 8.71125 -8.68 8.4225 -8 8.125 C-7.34 7.75375 -6.68 7.3825 -6 7 C-5.62690101 5.34178227 -5.29299023 3.67422986 -5 2 C-2 0 -2 0 0 0 Z " fill="#B2B2C1" transform="translate(53,127)"/>
<path d="M0 0 C2.31 0 4.62 0 7 0 C6.67 1.32 6.34 2.64 6 4 C5.34 4 4.68 4 4 4 C3.96261719 4.60585937 3.92523438 5.21171875 3.88671875 5.8359375 C3.40246042 12.00785735 2.67368986 18.3441176 0 24 C-0.99 24.33 -1.98 24.66 -3 25 C-3 23.68 -3 22.36 -3 21 C-3.66 21 -4.32 21 -5 21 C-5 19.35 -5 17.7 -5 16 C-5.66 16 -6.32 16 -7 16 C-7.47970123 14.25014646 -7.95873924 12.50011109 -8.4375 10.75 C-8.70433594 9.77546875 -8.97117187 8.8009375 -9.24609375 7.796875 C-9.85544584 5.53627347 -10.44238255 3.27377991 -11 1 C-9.35 1 -7.7 1 -6 1 C-5.67 4.96 -5.34 8.92 -5 13 C-4.34 13 -3.68 13 -3 13 C-3 14.65 -3 16.3 -3 18 C-2.01 18 -1.02 18 0 18 C0.19484938 15.56288386 0.38115178 13.12562602 0.5625 10.6875 C0.61857422 9.99720703 0.67464844 9.30691406 0.73242188 8.59570312 C0.96581505 5.37487726 1.03224218 3.09672655 0 0 Z " fill="#9F9FB2" transform="translate(105,115)"/>
<path d="M0 0 C2.34770643 3.52155964 2.37669614 5.50771843 2.625 9.6875 C2.69976562 10.86699219 2.77453125 12.04648438 2.8515625 13.26171875 C2.90054688 14.16535156 2.94953125 15.06898438 3 16 C1.35 16 -0.3 16 -2 16 C-1.67 15.34 -1.34 14.68 -1 14 C-0.93003986 12.29297265 -0.91559846 10.58331997 -0.9375 8.875 C-0.94652344 7.96492187 -0.95554688 7.05484375 -0.96484375 6.1171875 C-0.97644531 5.41851562 -0.98804688 4.71984375 -1 4 C-2.32 4 -3.64 4 -5 4 C-5 7.96 -5 11.92 -5 16 C-6.65 16 -8.3 16 -10 16 C-9.67 11.05 -9.34 6.1 -9 1 C-3 0 -3 0 0 0 Z " fill="#686886" transform="translate(136,124)"/>
<path d="M0 0 C4.55555556 0.55555556 4.55555556 0.55555556 6 2 C6.23527773 4.34987262 6.41386417 6.70556039 6.5625 9.0625 C6.64628906 10.35285156 6.73007813 11.64320313 6.81640625 12.97265625 C6.87699219 13.97167969 6.93757813 14.97070312 7 16 C5.68 15.67 4.36 15.34 3 15 C2.67 13.35 2.34 11.7 2 10 C1.34 11.98 0.68 13.96 0 16 C-0.99 16 -1.98 16 -3 16 C-3.25 13.75 -3.25 13.75 -3 11 C-1.125 8.6875 -1.125 8.6875 1 7 C1.66 7 2.32 7 3 7 C3 5.68 3 4.36 3 3 C2.01 3 1.02 3 0 3 C-0.33 3.99 -0.66 4.98 -1 6 C-1.66 6 -2.32 6 -3 6 C-2.42655063 3.13275314 -2.1385485 2.1385485 0 0 Z " fill="#666685" transform="translate(70,124)"/>
<path d="M0 0 C0.33 0.99 0.66 1.98 1 3 C3.64 3 6.28 3 9 3 C9.03738281 3.84304687 9.07476562 4.68609375 9.11328125 5.5546875 C9.17902344 6.65039062 9.24476563 7.74609375 9.3125 8.875 C9.39951172 10.51082031 9.39951172 10.51082031 9.48828125 12.1796875 C9.74158203 13.57574219 9.74158203 13.57574219 10 15 C10.99 15.66 11.98 16.32 13 17 C9.25 18.125 9.25 18.125 7 17 C7 13.04 7 9.08 7 5 C5.02 5 3.04 5 1 5 C1 8.96 1 12.92 1 17 C1.66 17.33 2.32 17.66 3 18 C1.68 17.67 0.36 17.34 -1 17 C-1.33 12.05 -1.66 7.1 -2 2 C-1.34 2 -0.68 2 0 2 C0 1.34 0 0.68 0 0 Z " fill="#5C5C7D" transform="translate(144,122)"/>
<path d="M0 0 C0.99 0.33 1.98 0.66 3 1 C3.3125 4.3125 3.3125 4.3125 3 8 C0.5625 9.8125 0.5625 9.8125 -2 11 C-2.33 11.66 -2.66 12.32 -3 13 C-1.576875 12.9690625 -1.576875 12.9690625 -0.125 12.9375 C3 13 3 13 5 14 C5 15.65 5 17.3 5 19 C4.34 18.34 3.68 17.68 3 17 C0.34462628 16.43479997 -2.29144713 16.26211802 -5 16 C-5 15.34 -5 14.68 -5 14 C-5.66 14 -6.32 14 -7 14 C-7 12.68 -7 11.36 -7 10 C-6.34 10 -5.68 10 -5 10 C-5.33 9.34 -5.66 8.68 -6 8 C-6.039992 6.00039988 -6.04346799 3.99952758 -6 2 C-5.67 2 -5.34 2 -5 2 C-5 3.65 -5 5.3 -5 7 C-3.02 7 -1.04 7 1 7 C0.67 4.69 0.34 2.38 0 0 Z " fill="#676785" transform="translate(45,126)"/>
<path d="M0 0 C1.75 1.3125 1.75 1.3125 3 3 C3 3.99 3 4.98 3 6 C0.03 6 -2.94 6 -6 6 C-5.34 8.31 -4.68 10.62 -4 13 C-2.35 13.33 -0.7 13.66 1 14 C0.67 14.66 0.34 15.32 0 16 C-1.98 16 -3.96 16 -6 16 C-6 15.34 -6 14.68 -6 14 C-6.66 14 -7.32 14 -8 14 C-8.62283737 4.93425606 -8.62283737 4.93425606 -6.25 1.375 C-4 0 -4 0 0 0 Z " fill="#565678" transform="translate(183,124)"/>
<path d="M0 0 C0.33 0.66 0.66 1.32 1 2 C1.66 2 2.32 2 3 2 C3 5.3 3 8.6 3 12 C2.34 12 1.68 12 1 12 C1 11.01 1 10.02 1 9 C0.071875 9.20625 -0.85625 9.4125 -1.8125 9.625 C-5 10 -5 10 -8 8 C-8.1875 5.375 -8.1875 5.375 -8 3 C-5.36 3 -2.72 3 0 3 C0 2.01 0 1.02 0 0 Z " fill="#F4F4F6" transform="translate(124,127)"/>
<path d="M0 0 C1.98 0 3.96 0 6 0 C6.05410687 1.77049689 6.09284119 3.54146849 6.125 5.3125 C6.14820313 6.29863281 6.17140625 7.28476563 6.1953125 8.30078125 C6 11 6 11 4 14 C1.375 14.1875 1.375 14.1875 -1 14 C-0.67 13.34 -0.34 12.68 0 12 C0.07065617 9.95944995 0.08421976 7.91665743 0.0625 5.875 C0.05347656 4.77929688 0.04445312 3.68359375 0.03515625 2.5546875 C0.02355469 1.71164063 0.01195312 0.86859375 0 0 Z " fill="#FBFBFC" transform="translate(145,127)"/>
<path d="M0 0 C0.66 0.33 1.32 0.66 2 1 C1.979375 1.94875 1.95875 2.8975 1.9375 3.875 C1.77448174 6.90666283 1.77448174 6.90666283 3 9 C3.99 9.33 4.98 9.66 6 10 C6 10.66 6 11.32 6 12 C9.3 12.33 12.6 12.66 16 13 C16 13.66 16 14.32 16 15 C21.28 15 26.56 15 32 15 C32 15.33 32 15.66 32 16 C19.63111625 16.5701159 9.23690676 16.83735416 -2 11 C-2 10.34 -2 9.68 -2 9 C-1.34 9 -0.68 9 0 9 C0 6.03 0 3.06 0 0 Z " fill="#526DA2" transform="translate(20,67)"/>
<path d="M0 0 C0.66 0 1.32 0 2 0 C1.67 1.98 1.34 3.96 1 6 C0.34 6 -0.32 6 -1 6 C-1 7.65 -1 9.3 -1 11 C-1.66 11 -2.32 11 -3 11 C-3.66 12.65 -4.32 14.3 -5 16 C-5.99 16 -6.98 16 -8 16 C-9.02019573 16.9793879 -10.02149805 17.97895449 -11 19 C-11.66 19 -12.32 19 -13 19 C-13 19.66 -13 20.32 -13 21 C-13.66 20.67 -14.32 20.34 -15 20 C-14.67 19.34 -14.34 18.68 -14 18 C-13.34 18 -12.68 18 -12 18 C-12 17.01 -12 16.02 -12 15 C-10.625 13.3125 -10.625 13.3125 -9 12 C-8.34 12 -7.68 12 -7 12 C-6.6596875 10.9790625 -6.6596875 10.9790625 -6.3125 9.9375 C-4.68773854 6.3011291 -2.67196743 2.97170737 0 0 Z " fill="#FFAA64" transform="translate(88,49)"/>
<path d="M0 0 C0.99 0 1.98 0 3 0 C3 8.25 3 16.5 3 25 C2.01 25 1.02 25 0 25 C-0.19585353 21.02119772 -0.3802867 17.04194844 -0.5625 13.0625 C-0.61857422 11.92619141 -0.67464844 10.78988281 -0.73242188 9.61914062 C-0.78076172 8.53955078 -0.82910156 7.45996094 -0.87890625 6.34765625 C-0.9260376 5.34742432 -0.97316895 4.34719238 -1.02172852 3.31665039 C-1 1 -1 1 0 0 Z " fill="#636383" transform="translate(80,115)"/>
<path d="M0 0 C0.33 5.61 0.66 11.22 1 17 C-0.98 17 -2.96 17 -5 17 C-5 11.66666667 -5 6.33333333 -5 1 C-3 0 -3 0 0 0 Z " fill="#B9B9C7" transform="translate(36,124)"/>
<path d="M0 0 C0 1.32 0 2.64 0 4 C-0.99 3.67 -1.98 3.34 -3 3 C-3.33 4.32 -3.66 5.64 -4 7 C-2.68 7.33 -1.36 7.66 0 8 C0.79953138 11.28696233 1.09658936 12.71023192 0 16 C-2.31 16 -4.62 16 -7 16 C-6.67 15.01 -6.34 14.02 -6 13 C-4.68 13.66 -3.36 14.32 -2 15 C-2.11341534 12.59122743 -2.11341534 12.59122743 -3 10 C-3.845625 9.505 -4.69125 9.01 -5.5625 8.5 C-6.366875 8.005 -7.17125 7.51 -8 7 C-8.5 4.4375 -8.5 4.4375 -8 2 C-4.77208445 -0.1519437 -3.71599191 -0.20086443 0 0 Z " fill="#9292A8" transform="translate(195,124)"/>
<path d="M0 0 C3.47434195 6.53644466 2.23460272 13.90103437 1 21 C1.66 21 2.32 21 3 21 C3 20.34 3 19.68 3 19 C4.45742463 18.91903197 5.91612807 18.86082226 7.375 18.8125 C8.18710937 18.77769531 8.99921875 18.74289063 9.8359375 18.70703125 C10.55007812 18.80371094 11.26421875 18.90039062 12 19 C12.66 19.99 13.32 20.98 14 22 C10.71480525 23.09506492 8.26336585 23.09960608 4.8125 23.0625 C3.18248047 23.04896484 3.18248047 23.04896484 1.51953125 23.03515625 C0.68808594 23.02355469 -0.14335937 23.01195312 -1 23 C-1 20.43002129 -0.91198024 17.8976122 -0.78125 15.33203125 C-0.73613281 14.43935547 -0.69101563 13.54667969 -0.64453125 12.62695312 C-0.59683594 11.69818359 -0.54914062 10.76941406 -0.5 9.8125 C-0.45230469 8.87212891 -0.40460937 7.93175781 -0.35546875 6.96289062 C-0.23765156 4.64189202 -0.11913586 2.32093123 0 0 Z " fill="#7F7F99" transform="translate(10,118)"/>
<path d="M0 0 C2.64 0.33 5.28 0.66 8 1 C8 1.99 8 2.98 8 4 C6.68 4.33 5.36 4.66 4 5 C3.94600264 6.45792884 3.90720823 7.91642712 3.875 9.375 C3.85179687 10.18710938 3.82859375 10.99921875 3.8046875 11.8359375 C3.78629949 14.21342243 3.78629949 14.21342243 6 16 C3.69 16 1.38 16 -1 16 C-1.02692484 13.70839681 -1.04636124 11.41670454 -1.0625 9.125 C-1.07410156 7.84882813 -1.08570313 6.57265625 -1.09765625 5.2578125 C-1 2 -1 2 0 0 Z " fill="#70708D" transform="translate(166,124)"/>
<path d="M0 0 C1.65 0 3.3 0 5 0 C5.33 3.96 5.66 7.92 6 12 C6.66 12 7.32 12 8 12 C8.98248524 16.0527516 9.08159574 19.83861737 9 24 C8.67 22.68 8.34 21.36 8 20 C7.34 20 6.68 20 6 20 C6 18.35 6 16.7 6 15 C5.34 15 4.68 15 4 15 C3.52029877 13.25014646 3.04126076 11.50011109 2.5625 9.75 C2.29566406 8.77546875 2.02882813 7.8009375 1.75390625 6.796875 C1.14455416 4.53627347 0.55761745 2.27377991 0 0 Z " fill="#585879" transform="translate(94,116)"/>
<path d="M0 0 C22.20267909 -0.4531159 22.20267909 -0.4531159 32 2 C32.495 2.99 32.495 2.99 33 4 C34.64363134 4.72159424 36.31050386 5.39351421 38 6 C37.67 6.66 37.34 7.32 37 8 C33.55314251 7.41136413 30.68822159 6.4706312 27.5 5.0625 C18.78051841 1.75511043 9.22367012 1.63195178 0 1 C0 0.67 0 0.34 0 0 Z " fill="#FFCCA2" transform="translate(147,24)"/>
<path d="M0 0 C0 3.96 0 7.92 0 12 C-4.00001715 13.00000429 -6.05523353 12.80688405 -10 12 C-9.67 11.01 -9.34 10.02 -9 9 C-8.34 8.71125 -7.68 8.4225 -7 8.125 C-6.34 7.75375 -5.68 7.3825 -5 7 C-4.62690101 5.34178227 -4.29299023 3.67422986 -4 2 C-1 0 -1 0 0 0 Z " fill="#F2F2F4" transform="translate(52,127)"/>
<path d="M0 0 C0 0.66 0 1.32 0 2 C-4.38461538 5 -4.38461538 5 -7 5 C-7.23589844 5.56460938 -7.47179688 6.12921875 -7.71484375 6.7109375 C-9.29234942 9.52071963 -11.24051286 11.39619051 -13.5625 13.625 C-16.69042054 16.51070681 -16.69042054 16.51070681 -19 20 C-19.66 19.67 -20.32 19.34 -21 19 C-18.50688878 11.77123028 -8.3456761 0 0 0 Z " fill="#B7C2D9" transform="translate(42,49)"/>
<path d="M0 0 C3.27914568 0.56536994 4.93380808 1.3703012 7 4 C7.29296875 6.26171875 7.29296875 6.26171875 7.1875 8.6875 C7.16042969 9.49574219 7.13335937 10.30398437 7.10546875 11.13671875 C7.07066406 11.75160156 7.03585938 12.36648437 7 13 C6.01 13.495 6.01 13.495 5 14 C4.67 13.01 4.34 12.02 4 11 C2.02 11.99 2.02 11.99 0 13 C0.33 12.01 0.66 11.02 1 10 C1.66 10 2.32 10 3 10 C2.05066101 6.64566891 1.10251165 3.30753495 0 0 Z " fill="#FFA153" transform="translate(180,30)"/>
<path d="M0 0 C0.99 0.33 1.98 0.66 3 1 C3 1.99 3 2.98 3 4 C0.36 4 -2.28 4 -5 4 C-3.71860673 9.71863052 -3.71860673 9.71863052 0 14 C-5.875 13.125 -5.875 13.125 -7 12 C-7.07179964 10.48071962 -7.08392007 8.95832518 -7.0625 7.4375 C-7.05347656 6.61121094 -7.04445313 5.78492188 -7.03515625 4.93359375 C-7.02355469 4.29550781 -7.01195313 3.65742188 -7 3 C-4.69 3 -2.38 3 0 3 C0 2.01 0 1.02 0 0 Z " fill="#3B3B62" transform="translate(121,126)"/>
<path d="M0 0 C1.65 0 3.3 0 5 0 C5 4.62 5 9.24 5 14 C4.01 13.67 3.02 13.34 2 13 C1.93941406 12.31292969 1.87882813 11.62585938 1.81640625 10.91796875 C1.73261719 10.01691406 1.64882812 9.11585938 1.5625 8.1875 C1.48128906 7.29417969 1.40007812 6.40085938 1.31640625 5.48046875 C1.06510233 2.87256441 1.06510233 2.87256441 0 0 Z " fill="#6F6F8C" transform="translate(157,125)"/>
<path d="M0 0 C0.66 0.33 1.32 0.66 2 1 C1.34 2.98 0.68 4.96 0 7 C0.66 7 1.32 7 2 7 C2.103125 6.360625 2.20625 5.72125 2.3125 5.0625 C2.539375 4.381875 2.76625 3.70125 3 3 C3.99 2.67 4.98 2.34 6 2 C6 2.66 6 3.32 6 4 C5.01 4.495 5.01 4.495 4 5 C3.67 5.99 3.34 6.98 3 8 C2.401875 8.268125 1.80375 8.53625 1.1875 8.8125 C-1.91103506 10.49456189 -3.102117 13.08991273 -5 16 C-5.66 16 -6.32 16 -7 16 C-5.55377814 12.14340838 -3.78682503 8.52237006 -1.90234375 4.8671875 C-0.87997124 2.85335678 -0.87997124 2.85335678 0 0 Z " fill="#8D9FC2" transform="translate(119,43)"/>
<path d="M0 0 C-0.99 0.495 -0.99 0.495 -2 1 C-2 1.99 -2 2.98 -2 4 C-4.31 4 -6.62 4 -9 4 C-9 6.64 -9 9.28 -9 12 C-9.33 12 -9.66 12 -10 12 C-10 8.7 -10 5.4 -10 2 C-9.34 2 -8.68 2 -8 2 C-8 1.34 -8 0.68 -8 0 C-5.13822943 -1.43088528 -3.06624227 -0.59991697 0 0 Z " fill="#B2B2C1" transform="translate(123,125)"/>
<path d="M0 0 C2.5 1.1875 2.5 1.1875 5 3 C5.3125 5.6875 5.3125 5.6875 5 8 C3.68 7.67 2.36 7.34 1 7 C0.67 7.66 0.34 8.32 0 9 C1.98 9 3.96 9 6 9 C6 9.33 6 9.66 6 10 C3.69 10 1.38 10 -1 10 C-1.125 3.375 -1.125 3.375 0 0 Z " fill="#D9D9E1" transform="translate(188,131)"/>
<path d="M0 0 C1.75 1.3125 1.75 1.3125 3 3 C3 3.99 3 4.98 3 6 C0.36 6 -2.28 6 -5 6 C-5.33 4.35 -5.66 2.7 -6 1 C-4 0 -4 0 0 0 Z " fill="#A1A1B4" transform="translate(183,124)"/>
<path d="M0 0 C0.33 0.66 0.66 1.32 1 2 C-0.15665134 5.46995401 -1.18075554 5.88556665 -4 8 C-5.04976964 11.14930893 -5.10131595 13.38814456 -5.0625 16.6875 C-5.05347656 17.68136719 -5.04445313 18.67523438 -5.03515625 19.69921875 C-5.02355469 20.45847656 -5.01195312 21.21773437 -5 22 C-5.99 21.34 -6.98 20.68 -8 20 C-8.71196469 13.94830016 -7.32087678 9.1359466 -3.6875 4.2265625 C-2.49655766 2.7852516 -1.25262239 1.38804103 0 0 Z " fill="#667EAD" transform="translate(23,53)"/>
<path d="M0 0 C2.64 0 5.28 0 8 0 C8.33 0.99 8.66 1.98 9 3 C10.98 3 12.96 3 15 3 C15 3.66 15 4.32 15 5 C9.72 5 4.44 5 -1 5 C0 3 0 3 1 2 C0.67 1.34 0.34 0.68 0 0 Z " fill="#B1B1C1" transform="translate(117,136)"/>
<path d="M0 0 C1.32 0.33 2.64 0.66 4 1 C4 3.64 4 6.28 4 9 C2.68 9.33 1.36 9.66 0 10 C0 6.7 0 3.4 0 0 Z " fill="#F5F5F7" transform="translate(155,127)"/>
<path d="M0 0 C1.4540625 0.0309375 1.4540625 0.0309375 2.9375 0.0625 C2.9375 0.7225 2.9375 1.3825 2.9375 2.0625 C1.6175 2.0625 0.2975 2.0625 -1.0625 2.0625 C-1.0625 6.0225 -1.0625 9.9825 -1.0625 14.0625 C-1.7225 14.0625 -2.3825 14.0625 -3.0625 14.0625 C-3.25643875 11.91723901 -3.44248676 9.77126323 -3.625 7.625 C-3.78162109 5.83255859 -3.78162109 5.83255859 -3.94140625 4.00390625 C-3.98136719 3.03324219 -4.02132812 2.06257813 -4.0625 1.0625 C-3.0625 0.0625 -3.0625 0.0625 0 0 Z " fill="#535376" transform="translate(63.0625,124.9375)"/>
<path d="M0 0 C1.953125 0.5859375 1.953125 0.5859375 4 2 C4.609375 5.0390625 4.609375 5.0390625 4.75 8.625 C4.80671875 9.81351563 4.8634375 11.00203125 4.921875 12.2265625 C4.94765625 13.14179688 4.9734375 14.05703125 5 15 C3.35 15 1.7 15 0 15 C0.33 14.34 0.66 13.68 1 13 C1.09585131 11.35643193 1.12983511 9.70885358 1.125 8.0625 C1.12757813 7.18722656 1.13015625 6.31195313 1.1328125 5.41015625 C1.09822003 2.85540944 1.09822003 2.85540944 0 0 Z " fill="#4F4F72" transform="translate(134,125)"/>
<path d="M0 0 C0.99 0 1.98 0 3 0 C3.33 4.95 3.66 9.9 4 15 C3.01 15 2.02 15 1 15 C0.67 10.05 0.34 5.1 0 0 Z " fill="#575779" transform="translate(31,125)"/>
<path d="M0 0 C0.66 0 1.32 0 2 0 C1.67 1.98 1.34 3.96 1 6 C0.34 6 -0.32 6 -1 6 C-1 7.65 -1 9.3 -1 11 C-1.66 11 -2.32 11 -3 11 C-3.33 10.34 -3.66 9.68 -4 9 C-4.66 8.67 -5.32 8.34 -6 8 C-5.04956626 6.66102417 -4.08940853 5.32894573 -3.125 4 C-2.59132813 3.2575 -2.05765625 2.515 -1.5078125 1.75 C-1.01023437 1.1725 -0.51265625 0.595 0 0 Z " fill="#FFD2AD" transform="translate(88,49)"/>
<path d="M0 0 C2.31 0 4.62 0 7 0 C6.67 1.65 6.34 3.3 6 5 C4.02 5 2.04 5 0 5 C0 3.35 0 1.7 0 0 Z " fill="#F6F6F8" transform="translate(40,143)"/>
<path d="M0 0 C0.66 0 1.32 0 2 0 C2 1.32 2 2.64 2 4 C2.66 4 3.32 4 4 4 C4.98248524 8.0527516 5.08159574 11.83861737 5 16 C4.67 14.68 4.34 13.36 4 12 C3.34 12 2.68 12 2 12 C1.34 8.04 0.68 4.08 0 0 Z " fill="#37375F" transform="translate(98,124)"/>
<path d="M0 0 C1.98 0.495 1.98 0.495 4 1 C4 2.98 4 4.96 4 7 C2.0625 7.5625 2.0625 7.5625 0 8 C-0.33 7.67 -0.66 7.34 -1 7 C-0.71269945 4.66055264 -0.38063221 2.3260857 0 0 Z " fill="#EFEFF2" transform="translate(42,126)"/>
<path d="M0 0 C0.66 0 1.32 0 2 0 C2 4.95 2 9.9 2 15 C1.34 15 0.68 15 0 15 C-0.19390729 12.68802845 -0.37996367 10.3753971 -0.5625 8.0625 C-0.71912109 6.13083984 -0.71912109 6.13083984 -0.87890625 4.16015625 C-0.91886719 3.11730469 -0.95882812 2.07445313 -1 1 C-0.67 0.67 -0.34 0.34 0 0 Z " fill="#565678" transform="translate(53,124)"/>
<path d="M0 0 C0.99 0.33 1.98 0.66 3 1 C3 1.66 3 2.32 3 3 C5.64 2.34 8.28 1.68 11 1 C10.67 2.32 10.34 3.64 10 5 C3.9453125 5.1953125 3.9453125 5.1953125 2 5 C1.34 4.34 0.68 3.68 0 3 C0 2.01 0 1.02 0 0 Z " fill="#9D9DB1" transform="translate(37,145)"/>
<path d="M0 0 C1.32 0 2.64 0 4 0 C4 0.66 4 1.32 4 2 C9.28 2 14.56 2 20 2 C20 2.33 20 2.66 20 3 C13.07 3 6.14 3 -1 3 C-0.67 2.01 -0.34 1.02 0 0 Z " fill="#8B9DC1" transform="translate(32,80)"/>
<path d="M0 0 C0.33 0 0.66 0 1 0 C1.33 3.3 1.66 6.6 2 10 C2.99 10 3.98 10 5 10 C4.67 11.32 4.34 12.64 4 14 C2.35 14 0.7 14 -1 14 C-0.67 13.34 -0.34 12.68 0 12 C0.07065617 9.95944995 0.08421976 7.91665743 0.0625 5.875 C0.05347656 4.77929688 0.04445312 3.68359375 0.03515625 2.5546875 C0.02355469 1.71164063 0.01195312 0.86859375 0 0 Z " fill="#C0C0CC" transform="translate(145,127)"/>
<path d="M0 0 C-0.99 2.97 -1.98 5.94 -3 9 C-3.99 9 -4.98 9 -6 9 C-6.25 6.75 -6.25 6.75 -6 4 C-2.75675676 0 -2.75675676 0 0 0 Z " fill="#83839C" transform="translate(73,131)"/>
<path d="M0 0 C1 2 1 2 0.875 3.8125 C-0.40305597 7.00763992 -2.41366515 8.78314155 -5 11 C-5.99 11 -6.98 11 -8 11 C-7.67 10.34 -7.34 9.68 -7 9 C-6.34 9 -5.68 9 -5 9 C-4.731875 8.2575 -4.46375 7.515 -4.1875 6.75 C-3.05770579 4.13363446 -1.79106798 2.19812889 0 0 Z " fill="#B7C0D3" transform="translate(143,19)"/>
<path d="M0 0 C0.99 0 1.98 0 3 0 C3 1.32 3 2.64 3 4 C0.5 5.75 0.5 5.75 -2 7 C-2 6.34 -2 5.68 -2 5 C-2.66 5 -3.32 5 -4 5 C-4 4.34 -4 3.68 -4 3 C-3.01 2.67 -2.02 2.34 -1 2 C-0.67 1.34 -0.34 0.68 0 0 Z " fill="#E6E6EB" transform="translate(70,127)"/>
<path d="M0 0 C1.32 0.33 2.64 0.66 4 1 C0.3408828 4.34093309 -4.22081542 5.92975789 -9 7 C-9.66 6.67 -10.32 6.34 -11 6 C-9.5437455 5.32880451 -8.08492133 4.66318193 -6.625 4 C-5.40683594 3.443125 -5.40683594 3.443125 -4.1640625 2.875 C-2 2 -2 2 0 2 C0 1.34 0 0.68 0 0 Z " fill="#FFE0C5" transform="translate(140,77)"/>
<path d="M0 0 C2.97 0.495 2.97 0.495 6 1 C6 2.65 6 4.3 6 6 C5.34 5.34 4.68 4.68 4 4 C1.34462628 3.43479997 -1.29144713 3.26211802 -4 3 C-2.68 2.67 -1.36 2.34 0 2 C0 1.34 0 0.68 0 0 Z " fill="#747490" transform="translate(44,139)"/>
<path d="M0 0 C0.66 0 1.32 0 2 0 C2.66 1.98 3.32 3.96 4 6 C3.34 6 2.68 6 2 6 C1.67 7.32 1.34 8.64 1 10 C0 9 0 9 -0.09765625 6.93359375 C-0.08605469 6.10988281 -0.07445312 5.28617188 -0.0625 4.4375 C-0.05347656 3.61121094 -0.04445312 2.78492188 -0.03515625 1.93359375 C-0.02355469 1.29550781 -0.01195312 0.65742188 0 0 Z " fill="#EEEEF1" transform="translate(36,130)"/>
<path d="M0 0 C1.65 0 3.3 0 5 0 C4 3 4 3 1 5 C0.67 5.99 0.34 6.98 0 8 C-0.66 8 -1.32 8 -2 8 C-1.125 2.25 -1.125 2.25 0 0 Z " fill="#2B4D8E" transform="translate(121,42)"/>
<path d="M0 0 C0.99 0.33 1.98 0.66 3 1 C3 1.99 3 2.98 3 4 C0.36 4 -2.28 4 -5 4 C-5 5.65 -5 7.3 -5 9 C-5.33 9 -5.66 9 -6 9 C-6.33 7.02 -6.66 5.04 -7 3 C-4.69 3 -2.38 3 0 3 C0 2.01 0 1.02 0 0 Z " fill="#676785" transform="translate(121,126)"/>
<path d="M0 0 C0.66 0 1.32 0 2 0 C2 0.66 2 1.32 2 2 C2.969375 2.12375 3.93875 2.2475 4.9375 2.375 C6.4534375 2.684375 6.4534375 2.684375 8 3 C8.33 3.66 8.66 4.32 9 5 C4.78121808 5.19622241 1.82989106 4.80230168 -2 3 C-1.34 2.01 -0.68 1.02 0 0 Z " fill="#637BAC" transform="translate(24,77)"/>
<path d="M0 0 C2.625 0.375 2.625 0.375 5 1 C4.34 1.66 3.68 2.32 3 3 C2.01 3 1.02 3 0 3 C-0.33 3.99 -0.66 4.98 -1 6 C-1.66 6 -2.32 6 -3 6 C-2.42655063 3.13275314 -2.1385485 2.1385485 0 0 Z " fill="#9393A9" transform="translate(70,124)"/>
<path d="M0 0 C1.98 0.66 3.96 1.32 6 2 C6.33 3.65 6.66 5.3 7 7 C5.82780457 6.21654285 4.66236332 5.42297164 3.5 4.625 C2.8503125 4.18414062 2.200625 3.74328125 1.53125 3.2890625 C1.0259375 2.86367187 0.520625 2.43828125 0 2 C0 1.34 0 0.68 0 0 Z " fill="#4F4F72" transform="translate(188,129)"/>
<path d="M0 0 C0.33 0 0.66 0 1 0 C1 3.96 1 7.92 1 12 C1.66 12 2.32 12 3 12 C3 12.66 3 13.32 3 14 C1.35 13.67 -0.3 13.34 -2 13 C-1.34 12.67 -0.68 12.34 0 12 C0 8.04 0 4.08 0 0 Z " fill="#A3A3B6" transform="translate(62,127)"/>
<path d="M0 0 C3.9492568 0.55105909 7.34920174 1.38935371 11 3 C10.67 3.66 10.34 4.32 10 5 C6.05140217 4.4359146 3.29120954 3.2568294 0 1 C0 0.67 0 0.34 0 0 Z " fill="#FFBC85" transform="translate(174,27)"/>
<path d="M0 0 C0.33 0 0.66 0 1 0 C1 1.98 1 3.96 1 6 C0.34 6 -0.32 6 -1 6 C-1 6.66 -1 7.32 -1 8 C-2.32 7.67 -3.64 7.34 -5 7 C-4.01 7 -3.02 7 -2 7 C-2.061875 5.824375 -2.061875 5.824375 -2.125 4.625 C-2 2 -2 2 0 0 Z " fill="#CBCBD6" transform="translate(72,133)"/>
<path d="M0 0 C5.75 0.875 5.75 0.875 8 2 C8.625 4.5625 8.625 4.5625 9 7 C8.34 6.67 7.68 6.34 7 6 C7 5.01 7 4.02 7 3 C6.01 3.33 5.02 3.66 4 4 C2.68 2.68 1.36 1.36 0 0 Z " fill="#555577" transform="translate(19,117)"/>
<path d="M0 0 C0.33 0 0.66 0 1 0 C0.67 3.3 0.34 6.6 0 10 C-0.66 10 -1.32 10 -2 10 C-2 8.02 -2 6.04 -2 4 C-1.34 4 -0.68 4 0 4 C0 2.68 0 1.36 0 0 Z " fill="#8A8AA2" transform="translate(105,129)"/>
<path d="M0 0 C-0.66 0 -1.32 0 -2 0 C-2 0.66 -2 1.32 -2 2 C-5.01031744 2.93423645 -5.86650268 3.04449911 -9 2 C-9 1.34 -9 0.68 -9 0 C-3.375 -1.125 -3.375 -1.125 0 0 Z " fill="#81819A" transform="translate(136,125)"/>
<path d="M0 0 C2.31 0 4.62 0 7 0 C4.28817788 2.60334924 3.10866187 2.99456691 -0.75 3.1875 C-1.8225 3.125625 -2.895 3.06375 -4 3 C-2.68 2.67 -1.36 2.34 0 2 C0 1.34 0 0.68 0 0 Z " fill="#ABB8D2" transform="translate(80,32)"/>
<path d="M0 0 C0 1.98 0 3.96 0 6 C-0.66 6 -1.32 6 -2 6 C-2.33 5.34 -2.66 4.68 -3 4 C-3.66 3.67 -4.32 3.34 -5 3 C-2.25 0 -2.25 0 0 0 Z " fill="#FFC290" transform="translate(87,54)"/>
</svg>
